<svg width="500" height="500" viewBox="0 0 500 500" fill="none" xmlns="http://www.w3.org/2000/svg">
<mask id="mask0_2_3" style="mask-type:luminance" maskUnits="userSpaceOnUse" x="113" y="173" width="314" height="146">
<path d="M113.333 173.333H426.661V318.714H113.333V173.333Z" fill="white"/>
</mask>
<g mask="url(#mask0_2_3)">
<path d="M423.802 173.995L383.297 174.729C381.396 174.76 380.307 176.906 381.396 178.464L387.667 187.422C387.75 187.536 387.724 187.703 387.604 187.786L253.208 283.266C253.036 283.385 252.792 283.26 252.792 283.052V210.302C252.792 209.344 252.286 208.453 251.464 207.964C250.641 207.474 249.615 207.453 248.771 207.911L115.854 279.833C115.219 280.177 114.745 280.76 114.542 281.453C114.339 282.146 114.417 282.891 114.76 283.521L121.521 295.958C122.24 297.276 123.891 297.766 125.214 297.047L232.812 238.896C232.984 238.802 233.198 238.927 233.198 239.13V316.057C233.198 316.839 233.437 317.63 234 318.177C234.542 318.708 235.234 318.969 235.922 318.969C236.474 318.969 237.026 318.797 237.495 318.464L398.833 203.844C398.948 203.76 399.115 203.792 399.198 203.911L407.323 215.521C408.411 217.078 410.797 216.786 411.484 215.016L426.057 177.224C426.661 175.646 425.484 173.964 423.802 173.995Z" fill="#00687A"/>
</g>
<path d="M190.625 129.958V231.318C190.625 231.411 190.573 231.5 190.49 231.547L152.109 252.422C151.932 252.521 151.719 252.391 151.719 252.198V129.958C151.719 129.818 151.839 129.698 151.984 129.698H190.365C190.51 129.698 190.625 129.818 190.625 129.958Z" fill="#529CA2"/>
<path d="M291.823 155.016V247.016C291.823 247.099 291.786 247.182 291.714 247.229L260.292 269.552C260.115 269.677 259.875 269.552 259.875 269.339V210.297C259.875 206.87 258.036 203.641 255.083 201.885C254.453 201.516 253.797 201.208 253.109 200.995C253 200.958 252.927 200.859 252.927 200.75V155.016C252.927 154.875 253.047 154.755 253.193 154.755H291.562C291.708 154.755 291.823 154.875 291.823 155.016Z" fill="#FFBD59"/>
<path d="M241.224 94.5834V203.807C241.224 203.906 241.172 203.99 241.089 204.037L202.719 224.901C202.542 225 202.328 224.875 202.328 224.672V94.5834C202.328 94.4375 202.448 94.3177 202.594 94.3177H240.964C241.109 94.3177 241.224 94.4375 241.224 94.5834Z" fill="#00687A"/>
<mask id="mask1_2_3" style="mask-type:luminance" maskUnits="userSpaceOnUse" x="109" y="33" width="282" height="231">
<path d="M109.661 33.7136H390.667V264H109.661V33.7136Z" fill="white"/>
</mask>
<g mask="url(#mask1_2_3)">
<path d="M123.807 256.516V72.2917C123.807 58.8438 134.75 47.8959 148.203 47.8959H351.609C365.062 47.8959 376.005 58.8438 376.005 72.2917V154.182C376.005 158.094 379.172 161.26 383.078 161.26C386.99 161.26 390.156 158.094 390.156 154.182V72.2917C390.156 51.0365 372.865 33.7448 351.609 33.7448H148.203C126.948 33.7448 109.656 51.0365 109.656 72.2917V256.516C109.656 260.422 112.823 263.589 116.729 263.589C120.641 263.589 123.807 260.422 123.807 256.516ZM346.234 74.1459V208.359C346.234 208.443 346.193 208.521 346.125 208.573L307.74 235.839C307.568 235.958 307.328 235.839 307.328 235.625V74.1459C307.328 74 307.443 73.8854 307.589 73.8854H345.969C346.115 73.8854 346.234 74 346.234 74.1459Z" fill="#529CA2"/>
</g>
<mask id="mask2_2_3" style="mask-type:luminance" maskUnits="userSpaceOnUse" x="49" y="317" width="401" height="91">
<path d="M449.333 317.333H49.3333V408H449.333V317.333Z" fill="white"/>
</mask>
<g mask="url(#mask2_2_3)">
<path d="M93.582 376.969C93.8736 376.969 94.1653 377.026 94.457 377.136C94.7591 377.25 95.0455 377.443 95.3111 377.719L100.249 382.907C98.0924 385.74 95.3841 387.881 92.1236 389.323C88.858 390.756 85.0039 391.469 80.5611 391.469C76.4778 391.469 72.8163 390.776 69.582 389.386C66.3424 388 63.6028 386.084 61.3528 383.636C59.1028 381.193 57.3736 378.292 56.1653 374.927C54.957 371.568 54.3528 367.922 54.3528 363.99C54.3528 359.98 55.0038 356.297 56.3111 352.948C57.6132 349.589 59.4466 346.693 61.8111 344.261C64.1705 341.818 66.9986 339.922 70.2903 338.573C73.5924 337.214 77.2278 336.532 81.1861 336.532C83.1966 336.532 85.0924 336.714 86.8736 337.073C88.6653 337.438 90.332 337.927 91.8736 338.552C93.4257 339.177 94.858 339.938 96.1653 340.823C97.4674 341.714 98.6236 342.672 99.6236 343.698L95.4153 349.344C95.1497 349.693 94.832 350.006 94.457 350.282C94.0924 350.563 93.582 350.698 92.9153 350.698C92.4674 350.698 92.0455 350.605 91.6445 350.407C91.2539 350.214 90.8372 349.98 90.3945 349.698C89.9622 349.407 89.4778 349.094 88.9361 348.761C88.4049 348.427 87.7799 348.125 87.0611 347.844C86.3372 347.568 85.4882 347.334 84.5195 347.136C83.5455 346.927 82.4049 346.823 81.1028 346.823C79.0299 346.823 77.1445 347.209 75.4361 347.969C73.7278 348.735 72.2486 349.855 70.9986 351.323C69.7591 352.782 68.8007 354.573 68.1236 356.698C67.457 358.823 67.1236 361.256 67.1236 363.99C67.1236 366.74 67.4986 369.188 68.2486 371.323C68.9986 373.464 70.0195 375.271 71.3111 376.74C72.6028 378.198 74.108 379.313 75.832 380.073C77.5507 380.839 79.3997 381.219 81.3736 381.219C82.4986 381.219 83.5247 381.167 84.457 381.052C85.3997 380.943 86.2747 380.761 87.082 380.511C87.8997 380.25 88.6653 379.901 89.3736 379.469C90.082 379.042 90.8007 378.49 91.5403 377.823C91.8424 377.573 92.1653 377.375 92.4986 377.219C92.8424 377.052 93.207 376.969 93.582 376.969Z" fill="#00687A"/>
<path d="M123.197 362.407C124.89 362.407 126.333 362.193 127.53 361.761C128.723 361.334 129.702 360.735 130.468 359.969C131.228 359.209 131.786 358.318 132.135 357.302C132.478 356.276 132.655 355.172 132.655 353.99C132.655 351.631 131.885 349.792 130.343 348.469C128.801 347.136 126.416 346.469 123.197 346.469H118.176V362.407H123.197ZM149.697 390.886H138.405C136.306 390.886 134.806 390.104 133.905 388.532L124.968 372.927C124.551 372.261 124.083 371.776 123.572 371.469C123.056 371.151 122.322 370.99 121.364 370.99H118.176V390.886H105.718V337.136H123.197C127.083 337.136 130.395 337.542 133.135 338.344C135.885 339.136 138.124 340.25 139.864 341.677C141.598 343.094 142.853 344.776 143.635 346.719C144.426 348.667 144.822 350.782 144.822 353.073C144.822 354.813 144.583 356.459 144.114 358.011C143.655 359.568 142.968 361.006 142.051 362.323C141.145 363.631 140.02 364.802 138.676 365.844C137.343 366.875 135.801 367.719 134.051 368.386C134.853 368.802 135.614 369.323 136.322 369.948C137.041 370.573 137.687 371.318 138.26 372.177L149.697 390.886Z" fill="#00687A"/>
<path d="M166.772 390.886H154.231V337.136H166.772V390.886Z" fill="#00687A"/>
<path d="M206.865 348.052C206.5 348.636 206.115 349.084 205.698 349.386C205.292 349.677 204.771 349.823 204.136 349.823C203.578 349.823 202.974 349.651 202.323 349.302C201.667 348.943 200.927 348.542 200.094 348.094C199.271 347.651 198.334 347.25 197.282 346.886C196.224 346.526 195.016 346.344 193.657 346.344C191.323 346.344 189.578 346.844 188.427 347.844C187.287 348.844 186.719 350.193 186.719 351.886C186.719 352.969 187.063 353.875 187.761 354.594C188.453 355.302 189.354 355.917 190.469 356.427C191.594 356.943 192.87 357.417 194.302 357.844C195.745 358.276 197.219 358.756 198.719 359.282C200.219 359.813 201.683 360.438 203.115 361.157C204.558 361.865 205.834 362.776 206.948 363.886C208.073 364.985 208.979 366.334 209.677 367.927C210.37 369.511 210.719 371.422 210.719 373.657C210.719 376.146 210.287 378.469 209.427 380.636C208.563 382.802 207.313 384.693 205.677 386.302C204.037 387.917 202.016 389.177 199.615 390.094C197.224 391.011 194.5 391.469 191.448 391.469C189.782 391.469 188.078 391.292 186.344 390.948C184.604 390.615 182.927 390.136 181.302 389.511C179.677 388.875 178.146 388.125 176.719 387.261C175.302 386.401 174.063 385.443 173.011 384.386L176.698 378.552C176.99 378.136 177.37 377.792 177.844 377.511C178.328 377.235 178.854 377.094 179.427 377.094C180.162 377.094 180.907 377.334 181.657 377.802C182.407 378.261 183.25 378.776 184.198 379.344C185.141 379.901 186.224 380.417 187.448 380.886C188.683 381.36 190.141 381.594 191.823 381.594C194.084 381.594 195.844 381.094 197.094 380.094C198.344 379.094 198.969 377.511 198.969 375.344C198.969 374.094 198.62 373.084 197.927 372.302C197.245 371.511 196.344 370.86 195.219 370.344C194.104 369.818 192.834 369.36 191.407 368.969C189.99 368.584 188.532 368.151 187.032 367.677C185.532 367.193 184.063 366.605 182.636 365.907C181.203 365.198 179.927 364.276 178.802 363.136C177.688 361.985 176.787 360.552 176.094 358.844C175.412 357.136 175.073 355.026 175.073 352.511C175.073 350.5 175.474 348.532 176.282 346.615C177.099 344.698 178.292 342.99 179.865 341.49C181.433 339.99 183.365 338.792 185.657 337.886C187.948 336.985 190.563 336.532 193.511 336.532C195.162 336.532 196.766 336.667 198.323 336.927C199.891 337.193 201.375 337.573 202.782 338.073C204.183 338.573 205.49 339.177 206.698 339.886C207.917 340.584 209.011 341.375 209.969 342.261L206.865 348.052Z" fill="#00687A"/>
<path d="M256.678 347.011H241.553V390.886H229.074V347.011H213.949V337.136H256.678V347.011Z" fill="#00687A"/>
<path d="M291.384 370.344L286.404 355.615C286.04 354.688 285.654 353.589 285.238 352.323C284.821 351.047 284.394 349.672 283.967 348.198C283.602 349.698 283.217 351.089 282.8 352.365C282.384 353.646 281.988 354.75 281.613 355.677L276.675 370.344H291.384ZM311.196 390.886H301.529C300.446 390.886 299.571 390.636 298.904 390.136C298.248 389.625 297.748 388.979 297.404 388.198L294.238 378.823H273.8L270.613 388.198C270.347 388.881 269.863 389.5 269.154 390.052C268.456 390.61 267.592 390.886 266.55 390.886H256.821L277.634 337.136H290.404L311.196 390.886Z" fill="#00687A"/>
<path d="M347.844 380.927V390.886H315.448V337.136H327.906V380.927H347.844Z" fill="#00687A"/>
<path d="M386.58 380.927V390.886H354.184V337.136H366.643V380.927H386.58Z" fill="#00687A"/>
<path d="M445.671 363.99C445.671 367.881 444.994 371.5 443.65 374.844C442.316 378.177 440.431 381.084 438.004 383.552C435.572 386.026 432.634 387.964 429.191 389.365C425.759 390.771 421.952 391.469 417.775 391.469C413.593 391.469 409.78 390.771 406.337 389.365C402.889 387.964 399.947 386.026 397.504 383.552C395.056 381.084 393.16 378.177 391.816 374.844C390.483 371.5 389.816 367.881 389.816 363.99C389.816 360.105 390.483 356.485 391.816 353.136C393.16 349.792 395.056 346.886 397.504 344.427C399.947 341.969 402.889 340.042 406.337 338.636C409.78 337.235 413.593 336.532 417.775 336.532C421.952 336.532 425.759 337.24 429.191 338.657C432.634 340.073 435.572 342.011 438.004 344.469C440.431 346.927 442.316 349.834 443.65 353.177C444.994 356.526 445.671 360.131 445.671 363.99ZM432.9 363.99C432.9 361.339 432.551 358.948 431.858 356.823C431.176 354.688 430.191 352.881 428.9 351.407C427.608 349.938 426.025 348.802 424.15 348.011C422.285 347.219 420.16 346.823 417.775 346.823C415.369 346.823 413.223 347.219 411.337 348.011C409.462 348.802 407.879 349.938 406.587 351.407C405.296 352.881 404.301 354.688 403.608 356.823C402.926 358.948 402.587 361.339 402.587 363.99C402.587 366.672 402.926 369.073 403.608 371.198C404.301 373.323 405.296 375.131 406.587 376.615C407.879 378.089 409.462 379.214 411.337 379.99C413.223 380.756 415.369 381.136 417.775 381.136C420.16 381.136 422.285 380.756 424.15 379.99C426.025 379.214 427.608 378.089 428.9 376.615C430.191 375.131 431.176 373.323 431.858 371.198C432.551 369.073 432.9 366.672 432.9 363.99Z" fill="#00687A"/>
</g>
<path d="M112.595 404.843C112.538 404.926 112.481 404.989 112.429 405.03C112.371 405.062 112.304 405.072 112.22 405.072C112.137 405.072 112.033 405.03 111.908 404.947C111.783 404.853 111.626 404.749 111.449 404.634C111.267 404.525 111.043 404.426 110.783 404.343C110.533 404.249 110.22 404.197 109.845 404.197C109.496 404.197 109.189 404.249 108.929 404.343C108.663 404.442 108.439 404.572 108.262 404.739C108.08 404.895 107.939 405.082 107.845 405.301C107.762 405.509 107.72 405.739 107.72 405.989C107.72 406.312 107.793 406.572 107.949 406.78C108.116 406.989 108.324 407.171 108.574 407.322C108.835 407.478 109.126 407.608 109.449 407.718C109.783 407.832 110.121 407.947 110.47 408.072C110.814 408.187 111.147 408.317 111.47 408.468C111.804 408.608 112.095 408.791 112.345 409.009C112.606 409.233 112.814 409.509 112.97 409.843C113.137 410.166 113.22 410.562 113.22 411.03C113.22 411.53 113.137 412.004 112.97 412.447C112.804 412.879 112.554 413.259 112.22 413.593C111.887 413.916 111.481 414.171 111.012 414.364C110.538 414.541 109.996 414.634 109.387 414.634C108.637 414.634 107.955 414.504 107.345 414.239C106.731 413.963 106.21 413.593 105.783 413.134L106.241 412.405C106.283 412.353 106.33 412.301 106.387 412.259C106.455 412.218 106.522 412.197 106.595 412.197C106.663 412.197 106.741 412.228 106.824 412.28C106.918 412.338 107.022 412.405 107.137 412.489C107.246 412.572 107.371 412.671 107.512 412.78C107.663 412.879 107.83 412.968 108.012 413.051C108.189 413.134 108.397 413.207 108.637 413.259C108.871 413.317 109.137 413.343 109.429 413.343C109.804 413.343 110.126 413.296 110.408 413.197C110.699 413.103 110.939 412.963 111.137 412.78C111.345 412.588 111.496 412.364 111.595 412.114C111.705 411.853 111.762 411.567 111.762 411.259C111.762 410.916 111.684 410.629 111.533 410.405C111.376 410.187 111.168 409.999 110.908 409.843C110.658 409.692 110.366 409.567 110.033 409.468C109.699 409.358 109.356 409.254 109.012 409.155C108.679 409.046 108.345 408.921 108.012 408.78C107.679 408.629 107.376 408.442 107.116 408.218C106.866 407.983 106.663 407.692 106.512 407.343C106.356 406.999 106.283 406.572 106.283 406.072C106.283 405.671 106.356 405.28 106.512 404.905C106.663 404.52 106.892 404.176 107.199 403.884C107.501 403.593 107.871 403.364 108.304 403.197C108.746 403.02 109.251 402.926 109.824 402.926C110.46 402.926 111.043 403.03 111.574 403.239C112.1 403.437 112.564 403.718 112.97 404.093L112.595 404.843Z" fill="#00687A"/>
<path d="M126.004 408.78C126.004 409.645 125.864 410.437 125.588 411.155C125.322 411.864 124.942 412.483 124.442 413.009C123.942 413.525 123.343 413.926 122.65 414.218C121.952 414.499 121.181 414.634 120.338 414.634C119.504 414.634 118.739 414.499 118.046 414.218C117.348 413.926 116.754 413.525 116.254 413.009C115.754 412.483 115.364 411.864 115.088 411.155C114.822 410.437 114.692 409.645 114.692 408.78C114.692 407.921 114.822 407.134 115.088 406.426C115.364 405.707 115.754 405.088 116.254 404.572C116.754 404.046 117.348 403.645 118.046 403.364C118.739 403.072 119.504 402.926 120.338 402.926C121.181 402.926 121.952 403.072 122.65 403.364C123.343 403.645 123.942 404.046 124.442 404.572C124.942 405.088 125.322 405.707 125.588 406.426C125.864 407.134 126.004 407.921 126.004 408.78ZM124.4 408.78C124.4 408.072 124.301 407.442 124.108 406.884C123.926 406.332 123.655 405.858 123.296 405.468C122.947 405.082 122.525 404.78 122.025 404.572C121.525 404.364 120.963 404.259 120.338 404.259C119.723 404.259 119.171 404.364 118.671 404.572C118.171 404.78 117.739 405.082 117.379 405.468C117.03 405.858 116.759 406.332 116.567 406.884C116.369 407.442 116.275 408.072 116.275 408.78C116.275 409.489 116.369 410.124 116.567 410.676C116.759 411.233 117.03 411.707 117.379 412.093C117.739 412.483 118.171 412.78 118.671 412.989C119.171 413.187 119.723 413.28 120.338 413.28C120.963 413.28 121.525 413.187 122.025 412.989C122.525 412.78 122.947 412.483 123.296 412.093C123.655 411.707 123.926 411.233 124.108 410.676C124.301 410.124 124.4 409.489 124.4 408.78Z" fill="#00687A"/>
<path d="M134.708 413.197V414.509H128.208V403.051H129.75V413.197H134.708Z" fill="#00687A"/>
<path d="M140.445 413.28C140.914 413.28 141.341 413.207 141.716 413.051C142.091 412.884 142.404 412.655 142.654 412.364C142.914 412.072 143.112 411.733 143.237 411.343C143.372 410.942 143.445 410.499 143.445 410.009V403.051H145.008V410.009C145.008 410.676 144.893 411.296 144.674 411.864C144.466 412.421 144.164 412.905 143.779 413.322C143.388 413.739 142.909 414.067 142.341 414.301C141.768 414.536 141.138 414.655 140.445 414.655C139.737 414.655 139.096 414.536 138.529 414.301C137.971 414.067 137.492 413.739 137.091 413.322C136.701 412.905 136.393 412.421 136.174 411.864C135.966 411.296 135.862 410.676 135.862 410.009V403.051H137.404V410.009C137.404 410.483 137.471 410.921 137.612 411.322C137.747 411.728 137.945 412.072 138.195 412.364C138.456 412.645 138.779 412.864 139.154 413.03C139.529 413.197 139.956 413.28 140.445 413.28Z" fill="#00687A"/>
<path d="M156.671 412.905C156.224 413.421 155.698 413.832 155.088 414.134C154.489 414.426 153.776 414.593 152.942 414.634L152.796 415.114C153.296 415.207 153.651 415.348 153.859 415.53C154.078 415.723 154.192 415.968 154.192 416.259C154.192 416.426 154.151 416.577 154.067 416.718C153.984 416.853 153.864 416.973 153.713 417.072C153.557 417.166 153.369 417.239 153.151 417.28C152.942 417.332 152.713 417.364 152.463 417.364C152.239 417.364 152.031 417.343 151.838 417.301C151.64 417.259 151.463 417.197 151.296 417.114L151.421 416.676C151.463 416.577 151.526 416.53 151.609 416.53C151.651 416.53 151.692 416.536 151.734 416.551C151.776 416.577 151.823 416.598 151.88 416.614C151.932 416.64 152.005 416.661 152.088 416.676C152.171 416.702 152.265 416.718 152.38 416.718C152.614 416.718 152.786 416.666 152.901 416.572C153.01 416.489 153.067 416.374 153.067 416.239C153.067 416.03 152.953 415.884 152.734 415.801C152.51 415.718 152.192 415.655 151.776 415.614L152.109 414.614C151.343 414.572 150.651 414.4 150.026 414.093C149.411 413.791 148.885 413.379 148.442 412.864C148.01 412.353 147.671 411.754 147.421 411.072C147.182 410.379 147.067 409.614 147.067 408.78C147.067 407.921 147.203 407.129 147.484 406.405C147.76 405.687 148.14 405.067 148.63 404.551C149.13 404.041 149.718 403.645 150.401 403.364C151.093 403.072 151.859 402.926 152.692 402.926C153.494 402.926 154.213 403.062 154.838 403.322C155.463 403.572 156.01 403.921 156.484 404.364L155.984 405.093C155.953 405.134 155.911 405.176 155.859 405.218C155.802 405.249 155.734 405.259 155.651 405.259C155.552 405.259 155.432 405.213 155.296 405.114C155.156 405.02 154.974 404.905 154.755 404.78C154.531 404.645 154.255 404.525 153.921 404.426C153.588 404.317 153.171 404.259 152.671 404.259C152.088 404.259 151.546 404.364 151.046 404.572C150.557 404.78 150.135 405.082 149.776 405.468C149.427 405.858 149.156 406.332 148.963 406.884C148.765 407.442 148.671 408.072 148.671 408.78C148.671 409.504 148.765 410.145 148.963 410.697C149.171 411.254 149.448 411.728 149.796 412.114C150.156 412.504 150.578 412.801 151.067 413.009C151.552 413.207 152.073 413.301 152.63 413.301C152.974 413.301 153.281 413.28 153.546 413.239C153.823 413.197 154.078 413.134 154.317 413.051C154.552 412.968 154.765 412.864 154.963 412.739C155.156 412.603 155.359 412.442 155.567 412.259C155.651 412.176 155.739 412.134 155.838 412.134C155.921 412.134 155.989 412.171 156.046 412.239L156.671 412.905Z" fill="#00687A"/>
<path d="M168.844 408.78C168.844 409.645 168.703 410.437 168.427 411.155C168.161 411.864 167.781 412.483 167.281 413.009C166.781 413.525 166.182 413.926 165.49 414.218C164.792 414.499 164.021 414.634 163.177 414.634C162.344 414.634 161.578 414.499 160.885 414.218C160.187 413.926 159.594 413.525 159.094 413.009C158.594 412.483 158.203 411.864 157.927 411.155C157.661 410.437 157.531 409.645 157.531 408.78C157.531 407.921 157.661 407.134 157.927 406.426C158.203 405.707 158.594 405.088 159.094 404.572C159.594 404.046 160.187 403.645 160.885 403.364C161.578 403.072 162.344 402.926 163.177 402.926C164.021 402.926 164.792 403.072 165.49 403.364C166.182 403.645 166.781 404.046 167.281 404.572C167.781 405.088 168.161 405.707 168.427 406.426C168.703 407.134 168.844 407.921 168.844 408.78ZM167.24 408.78C167.24 408.072 167.141 407.442 166.948 406.884C166.766 406.332 166.495 405.858 166.135 405.468C165.786 405.082 165.365 404.78 164.865 404.572C164.365 404.364 163.802 404.259 163.177 404.259C162.562 404.259 162.01 404.364 161.51 404.572C161.01 404.78 160.578 405.082 160.219 405.468C159.87 405.858 159.599 406.332 159.406 406.884C159.208 407.442 159.115 408.072 159.115 408.78C159.115 409.489 159.208 410.124 159.406 410.676C159.599 411.233 159.87 411.707 160.219 412.093C160.578 412.483 161.01 412.78 161.51 412.989C162.01 413.187 162.562 413.28 163.177 413.28C163.802 413.28 164.365 413.187 164.865 412.989C165.365 412.78 165.786 412.483 166.135 412.093C166.495 411.707 166.766 411.233 166.948 410.676C167.141 410.124 167.24 409.489 167.24 408.78ZM164.198 401.197C164.323 401.197 164.427 401.176 164.51 401.134C164.604 401.093 164.682 401.041 164.74 400.968C164.807 400.884 164.854 400.796 164.885 400.697C164.927 400.603 164.948 400.504 164.948 400.405H165.823C165.823 400.645 165.786 400.864 165.719 401.072C165.661 401.28 165.573 401.468 165.448 401.634C165.323 401.791 165.167 401.916 164.99 402.009C164.807 402.108 164.599 402.155 164.365 402.155C164.115 402.155 163.891 402.114 163.698 402.03C163.516 401.937 163.344 401.838 163.177 401.739C163.021 401.629 162.87 401.53 162.719 401.447C162.578 401.364 162.432 401.322 162.281 401.322C162.156 401.322 162.042 401.353 161.948 401.405C161.865 401.447 161.786 401.509 161.719 401.593C161.661 401.666 161.62 401.749 161.594 401.843C161.562 401.942 161.552 402.041 161.552 402.134H160.656C160.656 401.9 160.687 401.676 160.76 401.468C160.828 401.249 160.927 401.062 161.052 400.905C161.177 400.739 161.328 400.608 161.51 400.509C161.687 400.416 161.896 400.364 162.135 400.364C162.37 400.364 162.578 400.416 162.76 400.509C162.953 400.593 163.125 400.692 163.281 400.801C163.448 400.9 163.599 400.989 163.74 401.072C163.891 401.155 164.042 401.197 164.198 401.197Z" fill="#00687A"/>
<path d="M178.131 413.239L178.11 414.509H171.047V403.051H178.11V404.301H172.61V408.114H177.068V409.343H172.61V413.239H178.131Z" fill="#00687A"/>
<path d="M186.162 404.843C186.105 404.926 186.048 404.989 185.996 405.03C185.938 405.062 185.871 405.072 185.787 405.072C185.704 405.072 185.6 405.03 185.475 404.947C185.35 404.853 185.193 404.749 185.016 404.634C184.834 404.525 184.61 404.426 184.35 404.343C184.1 404.249 183.787 404.197 183.412 404.197C183.063 404.197 182.756 404.249 182.496 404.343C182.23 404.442 182.006 404.572 181.829 404.739C181.647 404.895 181.506 405.082 181.412 405.301C181.329 405.509 181.287 405.739 181.287 405.989C181.287 406.312 181.36 406.572 181.516 406.78C181.683 406.989 181.891 407.171 182.141 407.322C182.402 407.478 182.693 407.608 183.016 407.718C183.35 407.832 183.688 407.947 184.037 408.072C184.381 408.187 184.714 408.317 185.037 408.468C185.371 408.608 185.662 408.791 185.912 409.009C186.173 409.233 186.381 409.509 186.537 409.843C186.704 410.166 186.787 410.562 186.787 411.03C186.787 411.53 186.704 412.004 186.537 412.447C186.371 412.879 186.121 413.259 185.787 413.593C185.454 413.916 185.048 414.171 184.579 414.364C184.105 414.541 183.563 414.634 182.954 414.634C182.204 414.634 181.522 414.504 180.912 414.239C180.298 413.963 179.777 413.593 179.35 413.134L179.808 412.405C179.85 412.353 179.897 412.301 179.954 412.259C180.022 412.218 180.089 412.197 180.162 412.197C180.23 412.197 180.308 412.228 180.391 412.28C180.485 412.338 180.589 412.405 180.704 412.489C180.813 412.572 180.938 412.671 181.079 412.78C181.23 412.879 181.397 412.968 181.579 413.051C181.756 413.134 181.964 413.207 182.204 413.259C182.438 413.317 182.704 413.343 182.996 413.343C183.371 413.343 183.693 413.296 183.975 413.197C184.266 413.103 184.506 412.963 184.704 412.78C184.912 412.588 185.063 412.364 185.162 412.114C185.272 411.853 185.329 411.567 185.329 411.259C185.329 410.916 185.251 410.629 185.1 410.405C184.943 410.187 184.735 409.999 184.475 409.843C184.225 409.692 183.933 409.567 183.6 409.468C183.266 409.358 182.923 409.254 182.579 409.155C182.246 409.046 181.912 408.921 181.579 408.78C181.246 408.629 180.943 408.442 180.683 408.218C180.433 407.983 180.23 407.692 180.079 407.343C179.923 406.999 179.85 406.572 179.85 406.072C179.85 405.671 179.923 405.28 180.079 404.905C180.23 404.52 180.459 404.176 180.766 403.884C181.068 403.593 181.438 403.364 181.871 403.197C182.313 403.02 182.818 402.926 183.391 402.926C184.027 402.926 184.61 403.03 185.141 403.239C185.667 403.437 186.131 403.718 186.537 404.093L186.162 404.843Z" fill="#00687A"/>
<path d="M200.146 413.239L200.126 414.509H193.063V403.051H200.126V404.301H194.626V408.114H199.084V409.343H194.626V413.239H200.146Z" fill="#00687A"/>
<path d="M212.274 404.843C212.217 404.926 212.159 404.989 212.107 405.03C212.05 405.062 211.982 405.072 211.899 405.072C211.816 405.072 211.711 405.03 211.586 404.947C211.461 404.853 211.305 404.749 211.128 404.634C210.946 404.525 210.722 404.426 210.461 404.343C210.211 404.249 209.899 404.197 209.524 404.197C209.175 404.197 208.868 404.249 208.607 404.343C208.342 404.442 208.118 404.572 207.941 404.739C207.758 404.895 207.618 405.082 207.524 405.301C207.441 405.509 207.399 405.739 207.399 405.989C207.399 406.312 207.472 406.572 207.628 406.78C207.795 406.989 208.003 407.171 208.253 407.322C208.513 407.478 208.805 407.608 209.128 407.718C209.461 407.832 209.8 407.947 210.149 408.072C210.493 408.187 210.826 408.317 211.149 408.468C211.482 408.608 211.774 408.791 212.024 409.009C212.284 409.233 212.493 409.509 212.649 409.843C212.816 410.166 212.899 410.562 212.899 411.03C212.899 411.53 212.816 412.004 212.649 412.447C212.482 412.879 212.232 413.259 211.899 413.593C211.566 413.916 211.159 414.171 210.691 414.364C210.217 414.541 209.675 414.634 209.066 414.634C208.316 414.634 207.633 414.504 207.024 414.239C206.409 413.963 205.888 413.593 205.461 413.134L205.92 412.405C205.961 412.353 206.008 412.301 206.066 412.259C206.133 412.218 206.201 412.197 206.274 412.197C206.342 412.197 206.42 412.228 206.503 412.28C206.597 412.338 206.701 412.405 206.816 412.489C206.925 412.572 207.05 412.671 207.191 412.78C207.342 412.879 207.508 412.968 207.691 413.051C207.868 413.134 208.076 413.207 208.316 413.259C208.55 413.317 208.816 413.343 209.107 413.343C209.482 413.343 209.805 413.296 210.086 413.197C210.378 413.103 210.618 412.963 210.816 412.78C211.024 412.588 211.175 412.364 211.274 412.114C211.383 411.853 211.441 411.567 211.441 411.259C211.441 410.916 211.362 410.629 211.211 410.405C211.055 410.187 210.847 409.999 210.586 409.843C210.336 409.692 210.045 409.567 209.711 409.468C209.378 409.358 209.034 409.254 208.691 409.155C208.357 409.046 208.024 408.921 207.691 408.78C207.357 408.629 207.055 408.442 206.795 408.218C206.545 407.983 206.342 407.692 206.191 407.343C206.034 406.999 205.961 406.572 205.961 406.072C205.961 405.671 206.034 405.28 206.191 404.905C206.342 404.52 206.571 404.176 206.878 403.884C207.18 403.593 207.55 403.364 207.982 403.197C208.425 403.02 208.93 402.926 209.503 402.926C210.138 402.926 210.722 403.03 211.253 403.239C211.779 403.437 212.243 403.718 212.649 404.093L212.274 404.843Z" fill="#00687A"/>
<path d="M222.162 413.239L222.141 414.509H215.079V403.051H222.141V404.301H216.641V408.114H221.1V409.343H216.641V413.239H222.162Z" fill="#00687A"/>
<path d="M227.506 408.593C227.949 408.593 228.345 408.541 228.694 408.426C229.037 408.317 229.324 408.166 229.548 407.968C229.782 407.775 229.954 407.541 230.069 407.259C230.194 406.983 230.256 406.676 230.256 406.343C230.256 405.65 230.027 405.129 229.569 404.78C229.121 404.437 228.454 404.259 227.569 404.259H225.86V408.593H227.506ZM232.798 414.509H231.423C231.142 414.509 230.933 414.4 230.798 414.176L227.819 410.093C227.735 409.957 227.636 409.858 227.527 409.801C227.428 409.749 227.267 409.718 227.048 409.718H225.86V414.509H224.319V403.051H227.569C228.287 403.051 228.912 403.129 229.444 403.28C229.97 403.421 230.407 403.629 230.756 403.905C231.1 404.187 231.35 404.52 231.506 404.905C231.673 405.296 231.756 405.733 231.756 406.218C231.756 406.624 231.694 407.004 231.569 407.364C231.444 407.713 231.256 408.025 231.006 408.301C230.767 408.582 230.475 408.822 230.131 409.03C229.782 409.228 229.386 409.374 228.944 409.468C229.136 409.582 229.303 409.749 229.444 409.968L232.798 414.509Z" fill="#00687A"/>
<path d="M243.38 403.051L238.692 414.509H237.317L232.63 403.051H233.88C234.015 403.051 234.13 403.088 234.213 403.155C234.297 403.228 234.359 403.312 234.401 403.405L237.63 411.509C237.698 411.692 237.765 411.884 237.838 412.093C237.906 412.301 237.968 412.525 238.026 412.759C238.078 412.525 238.135 412.301 238.192 412.093C238.244 411.884 238.307 411.692 238.38 411.509L241.609 403.405C241.635 403.322 241.698 403.249 241.797 403.176C241.89 403.093 242.005 403.051 242.13 403.051H243.38Z" fill="#00687A"/>
<path d="M246.441 414.509H244.878V403.051H246.441V414.509Z" fill="#00687A"/>
<path d="M258.254 412.905C257.806 413.421 257.28 413.832 256.671 414.134C256.072 414.426 255.358 414.593 254.525 414.634L254.379 415.114C254.879 415.207 255.233 415.348 255.442 415.53C255.66 415.723 255.775 415.968 255.775 416.259C255.775 416.426 255.733 416.577 255.65 416.718C255.567 416.853 255.447 416.973 255.296 417.072C255.14 417.166 254.952 417.239 254.733 417.28C254.525 417.332 254.296 417.364 254.046 417.364C253.822 417.364 253.614 417.343 253.421 417.301C253.223 417.259 253.046 417.197 252.879 417.114L253.004 416.676C253.046 416.577 253.108 416.53 253.192 416.53C253.233 416.53 253.275 416.536 253.317 416.551C253.358 416.577 253.405 416.598 253.463 416.614C253.515 416.64 253.588 416.661 253.671 416.676C253.754 416.702 253.848 416.718 253.963 416.718C254.197 416.718 254.369 416.666 254.483 416.572C254.593 416.489 254.65 416.374 254.65 416.239C254.65 416.03 254.535 415.884 254.317 415.801C254.093 415.718 253.775 415.655 253.358 415.614L253.692 414.614C252.926 414.572 252.233 414.4 251.608 414.093C250.994 413.791 250.468 413.379 250.025 412.864C249.593 412.353 249.254 411.754 249.004 411.072C248.765 410.379 248.65 409.614 248.65 408.78C248.65 407.921 248.785 407.129 249.067 406.405C249.343 405.687 249.723 405.067 250.213 404.551C250.713 404.041 251.301 403.645 251.983 403.364C252.676 403.072 253.442 402.926 254.275 402.926C255.077 402.926 255.796 403.062 256.421 403.322C257.046 403.572 257.593 403.921 258.067 404.364L257.567 405.093C257.535 405.134 257.494 405.176 257.442 405.218C257.384 405.249 257.317 405.259 257.233 405.259C257.134 405.259 257.015 405.213 256.879 405.114C256.739 405.02 256.556 404.905 256.338 404.78C256.114 404.645 255.838 404.525 255.504 404.426C255.171 404.317 254.754 404.259 254.254 404.259C253.671 404.259 253.129 404.364 252.629 404.572C252.14 404.78 251.718 405.082 251.358 405.468C251.009 405.858 250.739 406.332 250.546 406.884C250.348 407.442 250.254 408.072 250.254 408.78C250.254 409.504 250.348 410.145 250.546 410.697C250.754 411.254 251.03 411.728 251.379 412.114C251.739 412.504 252.16 412.801 252.65 413.009C253.134 413.207 253.655 413.301 254.213 413.301C254.556 413.301 254.864 413.28 255.129 413.239C255.405 413.197 255.66 413.134 255.9 413.051C256.134 412.968 256.348 412.864 256.546 412.739C256.739 412.603 256.942 412.442 257.15 412.259C257.233 412.176 257.322 412.134 257.421 412.134C257.504 412.134 257.572 412.171 257.629 412.239L258.254 412.905Z" fill="#00687A"/>
<path d="M270.426 408.78C270.426 409.645 270.286 410.437 270.01 411.155C269.744 411.864 269.364 412.483 268.864 413.009C268.364 413.525 267.765 413.926 267.072 414.218C266.374 414.499 265.603 414.634 264.76 414.634C263.926 414.634 263.161 414.499 262.468 414.218C261.77 413.926 261.176 413.525 260.676 413.009C260.176 412.483 259.786 411.864 259.51 411.155C259.244 410.437 259.114 409.645 259.114 408.78C259.114 407.921 259.244 407.134 259.51 406.426C259.786 405.707 260.176 405.088 260.676 404.572C261.176 404.046 261.77 403.645 262.468 403.364C263.161 403.072 263.926 402.926 264.76 402.926C265.603 402.926 266.374 403.072 267.072 403.364C267.765 403.645 268.364 404.046 268.864 404.572C269.364 405.088 269.744 405.707 270.01 406.426C270.286 407.134 270.426 407.921 270.426 408.78ZM268.822 408.78C268.822 408.072 268.723 407.442 268.531 406.884C268.348 406.332 268.077 405.858 267.718 405.468C267.369 405.082 266.947 404.78 266.447 404.572C265.947 404.364 265.385 404.259 264.76 404.259C264.145 404.259 263.593 404.364 263.093 404.572C262.593 404.78 262.161 405.082 261.801 405.468C261.452 405.858 261.182 406.332 260.989 406.884C260.791 407.442 260.697 408.072 260.697 408.78C260.697 409.489 260.791 410.124 260.989 410.676C261.182 411.233 261.452 411.707 261.801 412.093C262.161 412.483 262.593 412.78 263.093 412.989C263.593 413.187 264.145 413.28 264.76 413.28C265.385 413.28 265.947 413.187 266.447 412.989C266.947 412.78 267.369 412.483 267.718 412.093C268.077 411.707 268.348 411.233 268.531 410.676C268.723 410.124 268.822 409.489 268.822 408.78Z" fill="#00687A"/>
<path d="M278.505 404.843C278.448 404.926 278.39 404.989 278.338 405.03C278.281 405.062 278.213 405.072 278.13 405.072C278.047 405.072 277.943 405.03 277.818 404.947C277.693 404.853 277.536 404.749 277.359 404.634C277.177 404.525 276.953 404.426 276.693 404.343C276.443 404.249 276.13 404.197 275.755 404.197C275.406 404.197 275.099 404.249 274.838 404.343C274.573 404.442 274.349 404.572 274.172 404.739C273.989 404.895 273.849 405.082 273.755 405.301C273.672 405.509 273.63 405.739 273.63 405.989C273.63 406.312 273.703 406.572 273.859 406.78C274.026 406.989 274.234 407.171 274.484 407.322C274.745 407.478 275.036 407.608 275.359 407.718C275.693 407.832 276.031 407.947 276.38 408.072C276.724 408.187 277.057 408.317 277.38 408.468C277.713 408.608 278.005 408.791 278.255 409.009C278.515 409.233 278.724 409.509 278.88 409.843C279.047 410.166 279.13 410.562 279.13 411.03C279.13 411.53 279.047 412.004 278.88 412.447C278.713 412.879 278.463 413.259 278.13 413.593C277.797 413.916 277.39 414.171 276.922 414.364C276.448 414.541 275.906 414.634 275.297 414.634C274.547 414.634 273.864 414.504 273.255 414.239C272.64 413.963 272.12 413.593 271.693 413.134L272.151 412.405C272.193 412.353 272.239 412.301 272.297 412.259C272.364 412.218 272.432 412.197 272.505 412.197C272.573 412.197 272.651 412.228 272.734 412.28C272.828 412.338 272.932 412.405 273.047 412.489C273.156 412.572 273.281 412.671 273.422 412.78C273.573 412.879 273.739 412.968 273.922 413.051C274.099 413.134 274.307 413.207 274.547 413.259C274.781 413.317 275.047 413.343 275.338 413.343C275.713 413.343 276.036 413.296 276.318 413.197C276.609 413.103 276.849 412.963 277.047 412.78C277.255 412.588 277.406 412.364 277.505 412.114C277.614 411.853 277.672 411.567 277.672 411.259C277.672 410.916 277.594 410.629 277.443 410.405C277.286 410.187 277.078 409.999 276.818 409.843C276.568 409.692 276.276 409.567 275.943 409.468C275.609 409.358 275.265 409.254 274.922 409.155C274.588 409.046 274.255 408.921 273.922 408.78C273.588 408.629 273.286 408.442 273.026 408.218C272.776 407.983 272.573 407.692 272.422 407.343C272.265 406.999 272.193 406.572 272.193 406.072C272.193 405.671 272.265 405.28 272.422 404.905C272.573 404.52 272.802 404.176 273.109 403.884C273.411 403.593 273.781 403.364 274.213 403.197C274.656 403.02 275.161 402.926 275.734 402.926C276.37 402.926 276.953 403.03 277.484 403.239C278.01 403.437 278.474 403.718 278.88 404.093L278.505 404.843Z" fill="#00687A"/>
<path d="M292.489 413.239L292.468 414.509H285.406V403.051H292.468V404.301H286.968V408.114H291.427V409.343H286.968V413.239H292.489Z" fill="#00687A"/>
<path d="M306.583 403.051V414.509H305.229V406.093C305.229 405.983 305.229 405.864 305.229 405.739C305.24 405.603 305.25 405.468 305.25 405.343L301.333 412.509C301.208 412.749 301.021 412.864 300.771 412.864H300.542C300.292 412.864 300.104 412.749 299.979 412.509L295.958 405.301C296 405.582 296.021 405.843 296.021 406.093V414.509H294.646V403.051H295.792C295.927 403.051 296.031 403.067 296.104 403.093C296.187 403.124 296.26 403.192 296.333 403.301L300.292 410.364C300.359 410.489 300.422 410.624 300.479 410.759C300.531 410.9 300.588 411.046 300.646 411.197C300.698 411.046 300.755 410.9 300.812 410.759C300.88 410.624 300.948 410.489 301.021 410.364L304.896 403.301C304.963 403.192 305.031 403.124 305.104 403.093C305.187 403.067 305.297 403.051 305.437 403.051H306.583Z" fill="#00687A"/>
<path d="M312.897 408.989C313.34 408.989 313.731 408.937 314.064 408.822C314.397 408.697 314.679 408.53 314.918 408.322C315.153 408.114 315.324 407.864 315.439 407.572C315.564 407.28 315.627 406.957 315.627 406.593C315.627 405.874 315.397 405.301 314.939 404.884C314.491 404.468 313.814 404.259 312.897 404.259H311.043V408.989H312.897ZM312.897 403.051C313.616 403.051 314.241 403.134 314.772 403.301C315.314 403.468 315.757 403.707 316.106 404.009C316.465 404.317 316.731 404.692 316.897 405.134C317.074 405.567 317.168 406.051 317.168 406.593C317.168 407.134 317.069 407.629 316.877 408.072C316.694 408.504 316.423 408.879 316.064 409.197C315.699 409.52 315.257 409.77 314.731 409.947C314.199 410.129 313.59 410.218 312.897 410.218H311.043V414.509H309.502V403.051H312.897Z" fill="#00687A"/>
<path d="M322.297 408.593C322.74 408.593 323.135 408.541 323.484 408.426C323.828 408.317 324.115 408.166 324.339 407.968C324.573 407.775 324.745 407.541 324.859 407.259C324.984 406.983 325.047 406.676 325.047 406.343C325.047 405.65 324.818 405.129 324.359 404.78C323.912 404.437 323.245 404.259 322.359 404.259H320.651V408.593H322.297ZM327.589 414.509H326.214C325.932 414.509 325.724 414.4 325.589 414.176L322.609 410.093C322.526 409.957 322.427 409.858 322.318 409.801C322.219 409.749 322.057 409.718 321.839 409.718H320.651V414.509H319.109V403.051H322.359C323.078 403.051 323.703 403.129 324.234 403.28C324.76 403.421 325.198 403.629 325.547 403.905C325.891 404.187 326.141 404.52 326.297 404.905C326.464 405.296 326.547 405.733 326.547 406.218C326.547 406.624 326.484 407.004 326.359 407.364C326.234 407.713 326.047 408.025 325.797 408.301C325.557 408.582 325.266 408.822 324.922 409.03C324.573 409.228 324.177 409.374 323.734 409.468C323.927 409.582 324.094 409.749 324.234 409.968L327.589 414.509Z" fill="#00687A"/>
<path d="M336.217 413.239L336.196 414.509H329.133V403.051H336.196V404.301H330.696V408.114H335.154V409.343H330.696V413.239H336.217Z" fill="#00687A"/>
<path d="M344.248 404.843C344.191 404.926 344.134 404.989 344.082 405.03C344.024 405.062 343.957 405.072 343.873 405.072C343.79 405.072 343.686 405.03 343.561 404.947C343.436 404.853 343.279 404.749 343.102 404.634C342.92 404.525 342.696 404.426 342.436 404.343C342.186 404.249 341.873 404.197 341.498 404.197C341.149 404.197 340.842 404.249 340.582 404.343C340.316 404.442 340.092 404.572 339.915 404.739C339.733 404.895 339.592 405.082 339.498 405.301C339.415 405.509 339.373 405.739 339.373 405.989C339.373 406.312 339.446 406.572 339.602 406.78C339.769 406.989 339.977 407.171 340.227 407.322C340.488 407.478 340.779 407.608 341.102 407.718C341.436 407.832 341.774 407.947 342.123 408.072C342.467 408.187 342.8 408.317 343.123 408.468C343.457 408.608 343.748 408.791 343.998 409.009C344.259 409.233 344.467 409.509 344.623 409.843C344.79 410.166 344.873 410.562 344.873 411.03C344.873 411.53 344.79 412.004 344.623 412.447C344.457 412.879 344.207 413.259 343.873 413.593C343.54 413.916 343.134 414.171 342.665 414.364C342.191 414.541 341.649 414.634 341.04 414.634C340.29 414.634 339.608 414.504 338.998 414.239C338.384 413.963 337.863 413.593 337.436 413.134L337.894 412.405C337.936 412.353 337.983 412.301 338.04 412.259C338.108 412.218 338.175 412.197 338.248 412.197C338.316 412.197 338.394 412.228 338.477 412.28C338.571 412.338 338.675 412.405 338.79 412.489C338.899 412.572 339.024 412.671 339.165 412.78C339.316 412.879 339.483 412.968 339.665 413.051C339.842 413.134 340.05 413.207 340.29 413.259C340.524 413.317 340.79 413.343 341.082 413.343C341.457 413.343 341.779 413.296 342.061 413.197C342.352 413.103 342.592 412.963 342.79 412.78C342.998 412.588 343.149 412.364 343.248 412.114C343.358 411.853 343.415 411.567 343.415 411.259C343.415 410.916 343.337 410.629 343.186 410.405C343.029 410.187 342.821 409.999 342.561 409.843C342.311 409.692 342.019 409.567 341.686 409.468C341.352 409.358 341.009 409.254 340.665 409.155C340.332 409.046 339.998 408.921 339.665 408.78C339.332 408.629 339.029 408.442 338.769 408.218C338.519 407.983 338.316 407.692 338.165 407.343C338.009 406.999 337.936 406.572 337.936 406.072C337.936 405.671 338.009 405.28 338.165 404.905C338.316 404.52 338.545 404.176 338.852 403.884C339.154 403.593 339.524 403.364 339.957 403.197C340.399 403.02 340.904 402.926 341.477 402.926C342.113 402.926 342.696 403.03 343.227 403.239C343.753 403.437 344.217 403.718 344.623 404.093L344.248 404.843Z" fill="#00687A"/>
<path d="M352.928 410.259L351.137 405.593C351.079 405.457 351.022 405.296 350.97 405.114C350.913 404.921 350.855 404.718 350.803 404.509C350.689 404.942 350.574 405.301 350.449 405.593L348.658 410.259H352.928ZM356.178 414.509H354.97C354.829 414.509 354.72 414.478 354.637 414.405C354.553 414.338 354.491 414.249 354.449 414.134L353.366 411.364H348.22L347.158 414.134C347.126 414.233 347.064 414.322 346.97 414.405C346.887 414.478 346.772 414.509 346.637 414.509H345.428L350.012 403.051H351.595L356.178 414.509Z" fill="#00687A"/>
<path d="M360.864 408.593C361.307 408.593 361.703 408.541 362.052 408.426C362.396 408.317 362.682 408.166 362.906 407.968C363.14 407.775 363.312 407.541 363.427 407.259C363.552 406.983 363.614 406.676 363.614 406.343C363.614 405.65 363.385 405.129 362.927 404.78C362.479 404.437 361.812 404.259 360.927 404.259H359.219V408.593H360.864ZM366.156 414.509H364.781C364.5 414.509 364.291 414.4 364.156 414.176L361.177 410.093C361.094 409.957 360.995 409.858 360.885 409.801C360.786 409.749 360.625 409.718 360.406 409.718H359.219V414.509H357.677V403.051H360.927C361.646 403.051 362.271 403.129 362.802 403.28C363.328 403.421 363.765 403.629 364.114 403.905C364.458 404.187 364.708 404.52 364.864 404.905C365.031 405.296 365.114 405.733 365.114 406.218C365.114 406.624 365.052 407.004 364.927 407.364C364.802 407.713 364.614 408.025 364.364 408.301C364.125 408.582 363.833 408.822 363.489 409.03C363.14 409.228 362.745 409.374 362.302 409.468C362.495 409.582 362.661 409.749 362.802 409.968L366.156 414.509Z" fill="#00687A"/>
<path d="M369.263 414.509H367.701V403.051H369.263V414.509Z" fill="#00687A"/>
<path d="M378.264 410.259L376.472 405.593C376.415 405.457 376.358 405.296 376.306 405.114C376.248 404.921 376.191 404.718 376.139 404.509C376.024 404.942 375.91 405.301 375.785 405.593L373.993 410.259H378.264ZM381.514 414.509H380.306C380.165 414.509 380.056 414.478 379.972 414.405C379.889 414.338 379.827 414.249 379.785 414.134L378.702 411.364H373.556L372.493 414.134C372.462 414.233 372.399 414.322 372.306 414.405C372.222 414.478 372.108 414.509 371.972 414.509H370.764L375.347 403.051H376.931L381.514 414.509Z" fill="#00687A"/>
<path d="M384.575 414.509H383.013V403.051H384.575V414.509Z" fill="#00687A"/>
<path d="M393.368 404.843C393.31 404.926 393.253 404.989 393.201 405.03C393.144 405.062 393.076 405.072 392.993 405.072C392.909 405.072 392.805 405.03 392.68 404.947C392.555 404.853 392.399 404.749 392.222 404.634C392.039 404.525 391.815 404.426 391.555 404.343C391.305 404.249 390.993 404.197 390.618 404.197C390.269 404.197 389.961 404.249 389.701 404.343C389.435 404.442 389.211 404.572 389.034 404.739C388.852 404.895 388.711 405.082 388.618 405.301C388.534 405.509 388.493 405.739 388.493 405.989C388.493 406.312 388.565 406.572 388.722 406.78C388.888 406.989 389.097 407.171 389.347 407.322C389.607 407.478 389.899 407.608 390.222 407.718C390.555 407.832 390.894 407.947 391.243 408.072C391.586 408.187 391.92 408.317 392.243 408.468C392.576 408.608 392.868 408.791 393.118 409.009C393.378 409.233 393.586 409.509 393.743 409.843C393.909 410.166 393.993 410.562 393.993 411.03C393.993 411.53 393.909 412.004 393.743 412.447C393.576 412.879 393.326 413.259 392.993 413.593C392.659 413.916 392.253 414.171 391.784 414.364C391.31 414.541 390.769 414.634 390.159 414.634C389.409 414.634 388.727 414.504 388.118 414.239C387.503 413.963 386.982 413.593 386.555 413.134L387.013 412.405C387.055 412.353 387.102 412.301 387.159 412.259C387.227 412.218 387.295 412.197 387.368 412.197C387.435 412.197 387.513 412.228 387.597 412.28C387.69 412.338 387.795 412.405 387.909 412.489C388.019 412.572 388.144 412.671 388.284 412.78C388.435 412.879 388.602 412.968 388.784 413.051C388.961 413.134 389.17 413.207 389.409 413.259C389.644 413.317 389.909 413.343 390.201 413.343C390.576 413.343 390.899 413.296 391.18 413.197C391.472 413.103 391.711 412.963 391.909 412.78C392.118 412.588 392.269 412.364 392.368 412.114C392.477 411.853 392.534 411.567 392.534 411.259C392.534 410.916 392.456 410.629 392.305 410.405C392.149 410.187 391.94 409.999 391.68 409.843C391.43 409.692 391.138 409.567 390.805 409.468C390.472 409.358 390.128 409.254 389.784 409.155C389.451 409.046 389.118 408.921 388.784 408.78C388.451 408.629 388.149 408.442 387.888 408.218C387.638 407.983 387.435 407.692 387.284 407.343C387.128 406.999 387.055 406.572 387.055 406.072C387.055 405.671 387.128 405.28 387.284 404.905C387.435 404.52 387.664 404.176 387.972 403.884C388.274 403.593 388.644 403.364 389.076 403.197C389.519 403.02 390.024 402.926 390.597 402.926C391.232 402.926 391.815 403.03 392.347 403.239C392.873 403.437 393.336 403.718 393.743 404.093L393.368 404.843Z" fill="#00687A"/>
</svg>
